/* XPM */ 
static const unsigned char * xmp_keyword_xpm[] = {
"16 16 48 1",
" 	c None",
"!	c black",
"#	c #7F7F7F",
"$	c #7A7A7A",
"%	c white",
"&	c #727272",
"'	c #FCFCFC",
"(	c #C3C3C3",
")	c #CCCCCC",
"*	c #FBFBFB",
"+	c #6A6A6A",
",	c #F8F8F8",
"-	c #F6F6F6",
".	c #616161",
"0	c #F4F4F4",
"1	c #BEBEBE",
"2	c #C5C5C5",
"3	c #F0F0F0",
"4	c #565656",
"5	c #EFEFEF",
"6	c #EAEAEA",
"7	c #4C4C4C",
"8	c #EBEBEB",
"9	c #B8B8B8",
":	c #BDBDBD",
";	c #E4E4E4",
"<	c #81B9E6",
"=	c #A9CBE6",
">	c #3C3C3C",
"?	c #ECECEC",
"@	c #E8E8E8",
"A	c #5BA5E1",
"B	c #ABCCE7",
"C	c #171717",
"D	c #286396",
"E	c #2C7BBE",
"F	c #97E5FF",
"G	c #275C89",
"H	c #2379C3",
"I	c #92E3FF",
"J	c #6AD5FF",
"K	c #5DD1FF",
"L	c #73D8FF",
"M	c #196CB7",
"N	c #186AB5",
"O	c #38C5FF",
"P	c #0D5CA7",
"Q	c #06519C",
"                ",
"                ",
"                ",
" ############## ",
"$%%%%%%%%%%%%%%$",
"&'()**********'&",
"+,,,----------,+",
".01233333333330.",
"4555666666666654",
"789:;;;;;;;;<=87",
">?33@@@@@@@@AAB>",
" CCCCCCCDEEEEFEG",
"        HIJKKKLH",
"        MNNNNON ",
"            PP  ",
"            Q   "};