/* XPM */ 
static const unsigned char * xpm_eventfunction_xpm[] = {
"16 16 66 1",
" 	c None",
"!	c black",
"#	c #CCB301",
"$	c #DFCF4E",
"%	c #FFF8B1",
"&	c #FEF5A8",
"'	c #FEF5A7",
"(	c #FFF9B5",
")	c #EEE793",
"*	c #BAA303",
"+	c #C8AF01",
",	c #F5EE9B",
"-	c #FAE97F",
".	c #FAE97E",
"0	c #FBEE8E",
"1	c #EDE58F",
"2	c #D3C02F",
"3	c #F9EF99",
"4	c #F4E372",
"5	c #F6E883",
"6	c #EBE289",
"7	c #C2A901",
"8	c #E8DD76",
"9	c #F0E171",
":	c #F2E479",
";	c #E5DB81",
"<	c #AE9702",
"=	c #C5AF14",
">	c #F5EB8F",
"?	c #EEDD66",
"@	c #F3E784",
"A	c #BEA601",
"B	c #BBA301",
"C	c #DBCB54",
"D	c #F5EA8A",
"E	c #F2E57E",
"F	c #F2E57D",
"G	c #EFE37E",
"H	c #C3AD14",
"I	c #B59E03",
"J	c #AC9602",
"K	c #A58E02",
"L	c #A18A01",
"M	c #DDCF5B",
"N	c #D6C545",
"O	c #DCCE5B",
"P	c #BEA915",
"Q	c #C0AC19",
"R	c #E0D14A",
"S	c #E0D14C",
"T	c #C0AB19",
"U	c #B39C01",
"V	c #AF9801",
"W	c #CFBC26",
"X	c #E8D83D",
"Y	c #C5B01A",
"Z	c #AA9300",
"[	c #E2D128",
"]	c #CBB718",
"^	c #AC9604",
"_	c #D0BC17",
"`	c #A48D00",
"a	c #AB9505",
"b	c #A08A01",
"c	c #9B8400",
"d	c #978100",
"                ",
"      ########  ",
"      $%&'()*   ",
"     +,-.01*    ",
"     23456*     ",
"    789:;<      ",
"    =>?@AAAAA   ",
"   BCDEEFEGH    ",
"   IJKLMNOP     ",
"      QRSTU     ",
"     VWXYV      ",
"     Z[]Z       ",
"     ^_`        ",
"     ab         ",
"    cc          ",
"    d           "};