/* XPM */ 
static const unsigned char * xpm_keyword_xpm[] = {
"16 16 56 1",
" 	c None",
"!	c black",
"#	c #555555",
"$	c #616161",
"%	c #BCBCBB",
"&	c #E5E5E5",
"'	c #151515",
"(	c #B4B4B3",
")	c #DADAD9",
"*	c #383837",
"+	c #494949",
",	c #D0D0CE",
"-	c #6A6A69",
".	c #4D4D4D",
"0	c #444444",
"1	c #CBCBCA",
"2	c #353534",
"3	c #6B6B6A",
"4	c #E4E4E4",
"5	c #3F3F3F",
"6	c #3E3E3E",
"7	c #C6C6C5",
"8	c #BABAB8",
"9	c #696969",
":	c #ABABAB",
";	c #3C3C3C",
"<	c #BBBBBA",
"=	c #CCCCCA",
">	c #9C9C9C",
"?	c #2D2D2D",
"@	c #363636",
"A	c #C4C4C3",
"B	c #242424",
"C	c #0C0C0C",
"D	c #3A3A3A",
"E	c #C1C1C1",
"F	c #2F2F2F",
"G	c #3D3D3D",
"H	c #C2C2C4",
"I	c #333333",
"J	c #404041",
"K	c #C6C6CB",
"L	c #373738",
"M	c #424244",
"N	c #CBCBD4",
"O	c #3B3B3C",
"P	c #434346",
"Q	c #D2D2DD",
"R	c #3E3E40",
"S	c #414145",
"T	c #D8D8E6",
"U	c #3F3F42",
"V	c #0A0A0A",
"W	c #DCDCEB",
"X	c #3E3E42",
"Y	c #060606",
"           ##   ",
"         $%&'   ",
"         ()*    ",
"        +,-   +.",
"        0112 345",
"        67819): ",
"        ;<7=1>? ",
"       @ABCCC   ",
"      DEF       ",
"     GHI        ",
"    JKL         ",
"   MNO          ",
"  PQR           ",
" STU            ",
"VWX             ",
" Y              "};