/* XPM */ 
static const unsigned char * xpm_function_xpm[] = {
"16 16 88 1",
" 	c None",
"!	c black",
"#	c #545454",
"$	c #515151",
"%	c #FAFAFA",
"&	c #F5F5F5",
"'	c #767676",
"(	c #EAEAEA",
")	c #616161",
"*	c #4C4C4C",
"+	c #E6E6E5",
",	c #474747",
"-	c #E0E0E0",
".	c #CBCBCA",
"0	c #E5E5E4",
"1	c #B4B4B4",
"2	c #E4E4E4",
"3	c #DCDCDC",
"4	c #535353",
"5	c #D1D1D0",
"6	c #D0D0CF",
"7	c #DEDEDD",
"8	c #E2E2E1",
"9	c #393939",
":	c #A1A1A0",
";	c #D4D4D3",
"<	c #A6A6A5",
"=	c #2C2C2C",
">	c #323232",
"?	c #CCCCCB",
"@	c #BFBFBE",
"A	c #C7C7C6",
"B	c #D2D2D2",
"C	c #2D2D2E",
"D	c #2B2B2B",
"E	c #C4C4C4",
"F	c #BBBBBB",
"G	c #D3D3D6",
"H	c #303032",
"I	c #242424",
"J	c #939394",
"K	c #CFCFD4",
"L	c #B2B2BC",
"M	c #333336",
"N	c #3675A7",
"O	c #315D80",
"P	c #323233",
"Q	c #C6C6CC",
"R	c #BDBDC3",
"S	c #D9D9E4",
"T	c #E8E8F7",
"U	c #3889CB",
"V	c #3791DA",
"W	c #161616",
"X	c #C6C6D0",
"Y	c #B1B1BA",
"Z	c #C2C2CC",
"[	c #94949B",
"]	c #CACAD4",
"^	c #6A9FD0",
"_	c #438CCB",
"`	c #4C93D1",
"a	c #488FCD",
"b	c #4D94D2",
"c	c #97E5FF",
"d	c #2E87D2",
"e	c #424245",
"f	c #CBCBD8",
"g	c #272729",
"h	c #101010",
"i	c #C6C6D3",
"j	c #4489C7",
"k	c #92E3FF",
"l	c #6AD5FF",
"m	c #5DD1FF",
"n	c #73D8FF",
"o	c #2379C3",
"p	c #0B0B0B",
"q	c #D7D7E7",
"r	c #6597CA",
"s	c #165FA1",
"t	c #1767B0",
"u	c #1764AA",
"v	c #38C5FF",
"w	c #186AB5",
"x	c #070707",
"y	c #0D5CA7",
"z	c #06519C",
"                ",
"       ##       ",
"    $ $%&$ $    ",
"   '()*++*)('   ",
"  ,-.012213.-,  ",
"   4567887654   ",
"  99:;<==<;:99  ",
" >?@ABC  CBA@?> ",
" DEFEGH  HGEFED ",
"  IIJKLMMLKJNO  ",
"   PQRSTTSRQUV  ",
"  WXYZ[]^_`abcd ",
"   efghijklmmmno",
"    p pqrstsuvw ",
"       xx   yy  ",
"            z   "};